<svg width="24" height="24" viewBox="0 0 24 24" fill="none" xmlns="http://www.w3.org/2000/svg">
<path d="M17.707 13.7071L20.3551 16.3552C20.7112 16.7113 20.7112 17.2887 20.3551 17.6448C18.4299 19.57 15.382 19.7866 13.2039 18.153L11.6285 16.9714C9.88498 15.6638 8.33616 14.115 7.02851 12.3714L5.84695 10.796C4.21335 8.61788 4.42995 5.56999 6.35517 3.64477C6.71127 3.28867 7.28861 3.28867 7.64471 3.64477L10.2928 6.29289C10.6833 6.68342 10.6833 7.31658 10.2928 7.70711L9.27169 8.72825C9.1094 8.89054 9.06917 9.13846 9.17181 9.34373C10.3584 11.7171 12.2828 13.6415 14.6562 14.8281C14.8614 14.9308 15.1094 14.8905 15.2716 14.7283L16.2928 13.7071C16.6833 13.3166 17.3165 13.3166 17.707 13.7071Z" stroke="white"/>
</svg>
