<svg width="13" height="10" viewBox="0 0 13 10" fill="none" xmlns="http://www.w3.org/2000/svg">
<path d="M3.31882 1.59717L4.8884 3.15477C5.45952 3.72988 5.99071 3.99348 6.50192 3.99348C6.8103 3.96569 7.11016 3.87731 7.3843 3.73338C7.65844 3.58946 7.90148 3.39283 8.09946 3.15477L8.38702 2.86322L9.68502 1.59717L9.24969 1.14985C8.89074 0.785658 8.46297 0.496453 7.99125 0.299054C7.51953 0.101655 7.01328 0 6.50192 0C5.99056 0 5.48431 0.101655 5.01259 0.299054C4.54087 0.496453 4.1131 0.785658 3.75415 1.14985" fill="white" fill-opacity="0.7"/>
<path d="M1.6936 3.19461L4.56119 6.0622C4.81867 6.32023 5.12505 6.52428 5.46239 6.66241C5.79972 6.80054 6.16123 6.86996 6.52573 6.86661C6.89024 6.86326 7.25041 6.78721 7.58515 6.64291C7.91989 6.49861 8.22247 6.28897 8.47517 6.02625L11.3068 3.19461L9.81311 1.71289L8.21557 3.31043C8.00273 3.56377 7.74165 3.77226 7.44751 3.92379C7.15337 4.07532 6.83204 4.16685 6.50221 4.19307C5.93907 4.19307 5.36795 3.89753 4.75689 3.28647L3.19529 1.71289" fill="white" fill-opacity="0.7"/>
<path d="M0 4.90805L3.69032 8.59837C4.43828 9.33981 5.44883 9.75579 6.502 9.75579C7.55517 9.75579 8.56571 9.33981 9.31367 8.59837L13 4.90805L11.4344 3.33847L8.60676 6.17011C8.0569 6.73195 7.30798 7.05477 6.52197 7.06873H6.48203C6.10042 7.06766 5.72283 6.99085 5.37113 6.84277C5.01943 6.69468 4.70062 6.47827 4.43318 6.20605L1.5616 3.33447" fill="white" fill-opacity="0.7"/>
</svg>
