<svg width="37" height="35" viewBox="0 0 37 35" fill="none" xmlns="http://www.w3.org/2000/svg">
<rect x="2.5" y="0.5" width="34" height="34" rx="9.5" stroke="white"/>
<g clip-path="url(#clip0_1_415)">
<path fill-rule="evenodd" clip-rule="evenodd" d="M15.0958 26.5857V14.9995H11.2452V26.5857H15.0958V26.5857ZM13.1709 13.4181C14.5133 13.4181 15.3495 12.5277 15.3495 11.4159C15.3241 10.2794 14.5133 9.41406 13.1961 9.41406C11.8787 9.4141 11.0176 10.2794 11.0176 11.4159C11.0176 12.5277 11.8533 13.4182 13.1456 13.4182L13.1709 13.4181ZM17.227 26.5857C17.227 26.5857 17.2775 16.0866 17.227 14.9995H21.0782V16.6798H21.0527C21.5591 15.8891 22.4714 14.7274 24.5486 14.7274C27.0829 14.7274 28.9824 16.3834 28.9824 19.9423V26.5858H25.1318V20.3875C25.1318 18.83 24.5746 17.7672 23.1807 17.7672C22.1171 17.7672 21.4832 18.4837 21.2049 19.1763C21.103 19.4228 21.0782 19.7691 21.0782 20.1153V26.5857H17.227Z" fill="white"/>
</g>
<defs>
<clipPath id="clip0_1_415">
<rect width="18" height="18" fill="white" transform="translate(11 9)"/>
</clipPath>
</defs>
</svg>
