<svg width="24" height="24" viewBox="0 0 24 24" fill="none" xmlns="http://www.w3.org/2000/svg">
<path d="M18.5 10C18.5 12.327 17.3141 14.2164 15.9 15.6426C14.4865 17.0684 12.8868 17.9872 12.1678 18.3601L12.6283 19.2478C13.3922 18.8516 15.0935 17.8765 16.6102 16.3467C18.1264 14.8173 19.5 12.6894 19.5 10H18.5ZM12 3.5C15.5899 3.5 18.5 6.41015 18.5 10H19.5C19.5 5.85786 16.1421 2.5 12 2.5V3.5ZM5.5 10C5.5 6.41015 8.41015 3.5 12 3.5V2.5C7.85786 2.5 4.5 5.85786 4.5 10H5.5ZM11.8322 18.3601C11.1132 17.9872 9.51351 17.0684 8.09996 15.6426C6.68593 14.2164 5.5 12.327 5.5 10H4.5C4.5 12.6894 5.87358 14.8173 7.38981 16.3467C8.9065 17.8765 10.6078 18.8516 11.3717 19.2478L11.8322 18.3601ZM12.1678 18.3601C12.0593 18.4164 11.9407 18.4164 11.8322 18.3601L11.3717 19.2478C11.769 19.4538 12.231 19.4538 12.6283 19.2478L12.1678 18.3601ZM14.5 10C14.5 11.3807 13.3807 12.5 12 12.5V13.5C13.933 13.5 15.5 11.933 15.5 10H14.5ZM12 7.5C13.3807 7.5 14.5 8.61929 14.5 10H15.5C15.5 8.067 13.933 6.5 12 6.5V7.5ZM9.5 10C9.5 8.61929 10.6193 7.5 12 7.5V6.5C10.067 6.5 8.5 8.067 8.5 10H9.5ZM12 12.5C10.6193 12.5 9.5 11.3807 9.5 10H8.5C8.5 11.933 10.067 13.5 12 13.5V12.5Z" fill="white"/>
</svg>
