<svg width="22" height="25" viewBox="0 0 22 25" fill="none" xmlns="http://www.w3.org/2000/svg">
<path fill-rule="evenodd" clip-rule="evenodd" d="M11.4053 24.3645C13.6915 23.1786 21.5833 18.5251 21.5833 10.7917C21.5833 4.8316 16.7518 0 10.7917 0C4.8316 0 0 4.8316 0 10.7917C0 18.5251 7.89179 23.1786 10.1781 24.3645C10.5678 24.5666 11.0155 24.5666 11.4053 24.3645ZM10.7917 15.4167C13.3461 15.4167 15.4167 13.3461 15.4167 10.7917C15.4167 8.23736 13.3461 6.16667 10.7917 6.16667C8.23728 6.16667 6.16667 8.23736 6.16667 10.7917C6.16667 13.3461 8.23728 15.4167 10.7917 15.4167Z" fill="#F89F51"/>
</svg>
