<svg width="35" height="35" viewBox="0 0 35 35" fill="none" xmlns="http://www.w3.org/2000/svg">
<rect x="0.5" y="0.5" width="34" height="34" rx="9.5" stroke="white"/>
<path d="M27.4071 12.5141C27.2922 12.0714 27.0619 11.6672 26.7397 11.3426C26.4174 11.0181 26.0148 10.785 25.5729 10.667C22.894 10.351 20.1974 10.2087 17.5 10.2408C14.8026 10.2087 12.106 10.351 9.42708 10.667C8.98523 10.785 8.5826 11.0181 8.26036 11.3426C7.9381 11.6672 7.70778 12.0714 7.59291 12.5141C7.29946 14.1596 7.15678 15.8285 7.16666 17.4999C7.15629 19.18 7.29897 20.8575 7.59291 22.5116C7.71374 22.9471 7.9467 23.3433 8.26856 23.6606C8.5904 23.978 8.98988 24.2053 9.42708 24.3199C12.106 24.6358 14.8026 24.7783 17.5 24.7462C20.1974 24.7783 22.894 24.6358 25.5729 24.3199C26.0101 24.2053 26.4096 23.978 26.7314 23.6606C27.0533 23.3433 27.2863 22.9471 27.4071 22.5116C27.7011 20.8575 27.8437 19.18 27.8333 17.4999C27.8433 15.8285 27.7005 14.1596 27.4071 12.5141ZM15.3817 20.587V14.4387L20.7937 17.4999L15.3817 20.5741V20.587Z" fill="white"/>
</svg>
